<svg width="512" height="512" viewBox="0 0 512 512" xmlns="http://www.w3.org/2000/svg">
  <defs>
    <linearGradient id="tech-gradient" x1="0%" y1="0%" x2="100%" y2="100%">
      <stop offset="0%" style="stop-color:#0ea5e9;stop-opacity:1" />
      <stop offset="50%" style="stop-color:#38bdf8;stop-opacity:1" />
      <stop offset="100%" style="stop-color:#22d3ee;stop-opacity:1" />
    </linearGradient>
    
    <filter id="glow" x="-20%" y="-20%" width="140%" height="140%">
      <feGaussianBlur stdDeviation="15" result="blur" />
      <feComposite in="SourceGraphic" in2="blur" operator="over" />
    </filter>
  </defs>

  <rect x="0" y="0" width="512" height="512" rx="128" ry="128" fill="#020617" />
  
  <rect x="20" y="20" width="472" height="472" rx="108" ry="108" fill="none" stroke="#1e293b" stroke-width="4" opacity="0.5" />

  <g transform="translate(106, 136)" filter="url(#glow)">
    <path d="M40 0 L100 0 L100 240 L40 240 Z" fill="url(#tech-gradient)" />
    <path d="M200 0 L260 0 L260 240 L200 240 Z" fill="url(#tech-gradient)" />
    <path d="M100 40 L200 140 L200 80 L100 -20 Z" fill="url(#tech-gradient)" opacity="0.9" />
    
    <path d="M40 0 L150 110 L260 0 L260 60 L150 170 L40 60 Z" fill="url(#tech-gradient)" />
  </g>
</svg>