<svg width="1280" height="360" viewBox="0 0 1280 360" xmlns="http://www.w3.org/2000/svg" role="img" aria-label="MXW brand logo">
  <defs>
    <linearGradient id="mxwGoldLg" x1="88" y1="54" x2="598" y2="310" gradientUnits="userSpaceOnUse">
      <stop offset="0%" stop-color="#F6E0A3" />
      <stop offset="56%" stop-color="#D4AF37" />
      <stop offset="100%" stop-color="#8D6815" />
    </linearGradient>
    <filter id="mxwGlowLg" x="-25%" y="-25%" width="150%" height="150%">
      <feGaussianBlur stdDeviation="2.2" result="blur" />
      <feMerge>
        <feMergeNode in="blur" />
        <feMergeNode in="SourceGraphic" />
      </feMerge>
    </filter>
  </defs>

  <rect width="1280" height="360" fill="none" />

  <g transform="translate(70 40)">
    <rect x="0" y="0" width="280" height="280" rx="56" fill="#0C0C0E" />
    <rect x="1.2" y="1.2" width="277.6" height="277.6" rx="54.8" fill="none" stroke="#1E1E21" stroke-width="2.4" />
    <rect x="2.4" y="2.4" width="275.2" height="275.2" rx="53.6" fill="none" stroke="#D4AF37" stroke-opacity="0.2" />

    <line x1="140" y1="56" x2="140" y2="226" stroke="#1E1E21" stroke-width="4" stroke-linecap="round" opacity="0.8" />

    <g fill="none" stroke="url(#mxwGoldLg)" stroke-width="18" stroke-linecap="round" stroke-linejoin="round" filter="url(#mxwGlowLg)">
      <path d="M42 226V56L84 132L140 76L196 132L238 56V226" />
      <path d="M42 70L86 230L140 146L194 230L238 70" />
    </g>

    <g fill="none" stroke-linecap="round">
      <path d="M116 92L164 164M164 92L116 164" stroke="#0C0C0E" stroke-width="13" />
      <path d="M116 92L164 164M164 92L116 164" stroke="#F6E0A3" stroke-opacity="0.74" stroke-width="4.4" />
    </g>

    <circle cx="140" cy="128" r="4.8" fill="#FCFCFC" />
  </g>

  <line x1="390" y1="76" x2="390" y2="284" stroke="#1E1E21" stroke-width="2" />

  <g fill="none" stroke="url(#mxwGoldLg)" stroke-width="8" stroke-linecap="round" stroke-linejoin="round">
    <path d="M448 132V84L464 114L482 93L500 114L516 84V132" />
    <path d="M448 90L462 134L482 108L502 134L516 90" />
  </g>
  <path d="M472 96L492 122M492 96L472 122" fill="none" stroke="#0C0C0E" stroke-width="5" stroke-linecap="round" />
  <path d="M472 96L492 122M492 96L472 122" fill="none" stroke="#F6E0A3" stroke-opacity="0.74" stroke-width="1.8" stroke-linecap="round" />
  <circle cx="482" cy="108" r="1.5" fill="#FCFCFC" />

  <text x="548" y="182" fill="#FCFCFC" font-family="'Noto Sans SC', 'Inter', sans-serif" font-size="82" font-weight="600" letter-spacing="3">
    MASONS<tspan fill="#D4AF37">.XU</tspan>
  </text>
  <text x="548" y="236" fill="#A1A1AA" font-family="'JetBrains Mono', monospace" font-size="24" letter-spacing="4">
    SYSTEMS ARCHITECT
  </text>
  <line x1="548" y1="256" x2="966" y2="256" stroke="#D4AF37" stroke-opacity="0.34" />
</svg>
