<svg width="1280" height="360" viewBox="0 0 1280 360" xmlns="http://www.w3.org/2000/svg" role="img" aria-label="MXW brand logo">
  <defs>
    <linearGradient id="gold" x1="100" y1="60" x2="590" y2="320" gradientUnits="userSpaceOnUse">
      <stop offset="0%" stop-color="#F2D288" />
      <stop offset="54%" stop-color="#D4AF37" />
      <stop offset="100%" stop-color="#A67C1A" />
    </linearGradient>
    <filter id="softGlow" x="-25%" y="-25%" width="150%" height="150%">
      <feGaussianBlur stdDeviation="2.1" result="b" />
      <feMerge>
        <feMergeNode in="b" />
        <feMergeNode in="SourceGraphic" />
      </feMerge>
    </filter>
  </defs>

  <rect width="1280" height="360" fill="none" />

  <g transform="translate(70 40)">
    <rect x="0" y="0" width="280" height="280" rx="58" fill="#0C0C0E" />
    <rect x="1.2" y="1.2" width="277.6" height="277.6" rx="56.8" fill="none" stroke="#1E1E21" stroke-width="2.4" />
    <rect x="2" y="2" width="276" height="276" rx="56" fill="none" stroke="#D4AF37" stroke-opacity="0.19" />

    <g fill="none" stroke="url(#gold)" stroke-width="18" stroke-linecap="round" stroke-linejoin="round" filter="url(#softGlow)">
      <path d="M44 230V62L90 146L140 82L190 146L236 62V230" />
      <path d="M44 72L86 234L140 132L194 234L236 72" />
    </g>

    <g fill="none" stroke-linecap="round">
      <path d="M112 108L168 168M168 108L112 168" stroke="#0C0C0E" stroke-width="14" />
      <path d="M112 108L168 168M168 108L112 168" stroke="#F2D288" stroke-opacity="0.62" stroke-width="4.6" />
    </g>

    <circle cx="140" cy="138" r="4.8" fill="#FCFCFC" />
  </g>

  <line x1="390" y1="76" x2="390" y2="284" stroke="#1E1E21" stroke-width="2" />

  <g fill="none" stroke="url(#gold)" stroke-width="8" stroke-linecap="round" stroke-linejoin="round">
    <path d="M448 132V84L464 114L482 92L500 114L516 84V132" />
    <path d="M448 87L462 133L482 106L502 133L516 87" />
  </g>
  <path d="M472 96L492 122M492 96L472 122" fill="none" stroke="#0C0C0E" stroke-width="5.2" stroke-linecap="round" />
  <path d="M472 96L492 122M492 96L472 122" fill="none" stroke="#F2D288" stroke-opacity="0.62" stroke-width="1.8" stroke-linecap="round" />

  <text x="548" y="182" fill="#FCFCFC" font-family="'Noto Sans SC', 'Inter', sans-serif" font-size="82" font-weight="600" letter-spacing="3">MASONS<tspan fill="#D4AF37">.XU</tspan></text>
  <text x="548" y="236" fill="#A1A1AA" font-family="'JetBrains Mono', monospace" font-size="24" letter-spacing="5">MXW MONOGRAM</text>
  <line x1="548" y1="256" x2="968" y2="256" stroke="#D4AF37" stroke-opacity="0.35" />
</svg>
